<svg xmlns="http://www.w3.org/2000/svg"
  viewBox="0 0 32 32"
  height="32px"
  width="32px"
  y="0px"
  x="0px">
  <path d="M 30,26 19.085,15.085 c 0.622,-1.229 0.98,-2.614 0.981,-4.086 -0.002,-5.008 -4.058,-9.066 -9.067,-9.066 -5.008,0 -9.066,4.058 -9.066,9.066 0,5.01 4.058,9.065 9.066,9.067 1.472,-10e-4 2.857,-0.359 4.086,-0.981 L 26,30 Z M 4.066,10.999 c 0.008,-3.83 3.104,-6.925 6.933,-6.933 3.832,0.008 6.927,3.104 6.933,6.933 -0.006,3.832 -3.101,6.927 -6.933,6.933 C 7.169,17.926 4.074,14.831 4.066,10.999 Z M 10,10 H 6 v 2 H 10 12.002 16 v -2 h -3.998 z"/>
</svg>